<?xml version="1.0" encoding="iso-8859-1"?>
<!-- Generator: Adobe Illustrator 18.1.1, SVG Export Plug-In . SVG Version: 6.00 Build 0)  -->
<svg version="1.1" id="Capa_1" xmlns="http://www.w3.org/2000/svg" xmlns:xlink="http://www.w3.org/1999/xlink" x="0px" y="0px"
	 viewBox="0 0 422.678 422.678" style="enable-background:new 0 0 422.678 422.678;" xml:space="preserve">
<g>
	<g>
		<path style="fill:#010002;" d="M414.541,74.507H8.129C3.642,74.507,0,78.148,0,82.635v257.408c0,4.495,3.642,8.129,8.129,8.129
			h406.421c4.495,0,8.129-3.633,8.129-8.129V82.635C422.67,78.14,419.036,74.507,414.541,74.507z M406.412,331.914H16.257V90.764
			h390.163v241.15H406.412z"/>
		<path style="fill:#010002;" d="M71.897,299.936c1.585,1.585,3.666,2.382,5.747,2.382s4.162-0.797,5.747-2.382l75.685-75.685
			l45.414,45.414c1.585,1.585,3.666,2.382,5.747,2.382c2.081,0,4.162-0.797,5.747-2.382l46.52-46.52l74.58,74.58
			c1.585,1.585,3.666,2.382,5.747,2.382s4.162-0.797,5.747-2.382c3.178-3.178,3.178-8.316,0-11.494l-74.58-74.58l75.685-75.685
			c3.178-3.178,3.178-8.316,0-11.494c-3.178-3.178-8.316-3.178-11.494,0l-81.432,81.44l-46.52,46.52l-45.414-45.414l-80.327-80.327
			c-3.178-3.178-8.316-3.178-11.494,0s-3.178,8.316,0,11.494l74.58,74.588l-75.685,75.685
			C68.719,291.621,68.719,296.766,71.897,299.936z"/>
	</g>
</g>
<g>
</g>
<g>
</g>
<g>
</g>
<g>
</g>
<g>
</g>
<g>
</g>
<g>
</g>
<g>
</g>
<g>
</g>
<g>
</g>
<g>
</g>
<g>
</g>
<g>
</g>
<g>
</g>
<g>
</g>
</svg>
